# xmcd
#
# Track frame offsets:
#	150
#	15537
#	36107
#	51987
#	73547
#	86950
#	101302
#	119005
#	137347
#	151997
#
# Disc length: 2249 seconds
#
# Revision: 3
# Processed by: cddbd v1.5.2PL0 Copyright (c) Steve Scherf et al.
# Submitted via: EZCDAudioConverter 5.0.0.1
#
DISCID=7f08c70a
DTITLE=Charlie Daniels - By The Light Of The Moon
DYEAR=1997
DGENRE=Country
TTITLE0=Git Along, Little Dogies
TTITLE1=Cowboy Logic
TTITLE2=I'm An Old Cowhand (From The Rio Grande)
TTITLE3=Old Chisholm Trail
TTITLE4=Sixteen Tons
TTITLE5=Back In The Saddle Again
TTITLE6=John Henry
TTITLE7=Top Hand
TTITLE8=Saturday Night In Abilene
TTITLE9=Yippie Ki Yea
EXTD=
EXTT0=
EXTT1=
EXTT2=
EXTT3=
EXTT4=
EXTT5=
EXTT6=
EXTT7=
EXTT8=
EXTT9=
PLAYORDER=
